<svg fill="#d6d6d6" height="200px" width="200px" version="1.1" id="Layer_1" xmlns="http://www.w3.org/2000/svg" xmlns:xlink="http://www.w3.org/1999/xlink" viewBox="0 0 512 512" xml:space="preserve" stroke="#d6d6d6"><g id="SVGRepo_bgCarrier" stroke-width="0"></g><g id="SVGRepo_tracerCarrier" stroke-linecap="round" stroke-linejoin="round"></g><g id="SVGRepo_iconCarrier"> <g> <g> <polygon points="65.289,249.751 3.226,309.483 65.289,369.226 159.612,369.226 159.612,353.616 159.612,338.007 159.612,280.97 159.612,265.36 159.612,249.751 "></polygon> </g> </g> <g> <g> <polygon points="325.696,92.616 310.222,92.616 294.613,92.616 222.018,92.616 206.409,92.616 190.831,92.616 190.799,92.616 190.799,104.261 190.799,119.87 190.799,135.48 190.799,192.516 190.799,208.126 190.799,223.735 190.799,249.751 190.799,265.36 190.799,353.616 190.799,358.205 190.831,358.205 206.409,358.205 222.018,358.205 294.613,358.205 310.222,358.205 325.696,358.205 325.831,358.205 325.831,223.735 325.831,208.126 325.831,192.516 325.831,135.48 325.831,119.87 325.831,104.261 325.831,92.616 "></polygon> </g> </g> <g> <g> <polygon points="325.696,0 190.831,0 190.799,0 190.799,61.397 190.831,61.397 206.409,61.397 222.018,61.397 294.613,61.397 310.222,61.397 325.696,61.397 325.831,61.397 325.831,0 "></polygon> </g> </g> <g> <g> <polygon points="305.664,389.424 287.994,389.424 228.637,389.424 210.967,389.424 193.297,389.424 258.315,512 323.334,389.424 "></polygon> </g> </g> <g> <g> <polygon points="65.289,104.261 3.226,164.003 65.289,223.735 159.612,223.735 159.612,208.126 159.612,192.516 159.612,135.48 159.612,119.87 159.612,104.261 "></polygon> </g> </g> <g> <g> <polygon points="446.711,104.261 356.915,104.261 356.915,119.87 356.915,135.48 356.915,192.516 356.915,208.126 356.915,223.735 446.711,223.735 508.774,164.003 "></polygon> </g> </g> </g></svg>